<?xml version="1.0" standalone="no"?>
<!DOCTYPE svg PUBLIC "-//W3C//DTD SVG 20010904//EN"
 "http://www.w3.org/TR/2001/REC-SVG-20010904/DTD/svg10.dtd">
<svg version="1.0" xmlns="http://www.w3.org/2000/svg"
 width="400.000000pt" height="400.000000pt" viewBox="0 0 400.000000 400.000000"
 preserveAspectRatio="xMidYMid meet">
<metadata>
Created by potrace 1.14, written by Peter Selinger 2001-2017
</metadata>
<g transform="translate(0.000000,400.000000) scale(0.100000,-0.100000)"
fill="#000000" stroke="none">
<path d="M1785 3989 c-253 -33 -550 -124 -725 -222 -60 -33 -271 -172 -310
-203 -176 -142 -322 -309 -456 -522 -183 -290 -294 -682 -294 -1042 0 -249 50
-505 149 -765 41 -107 204 -382 286 -484 137 -169 266 -286 455 -413 265 -177
514 -269 869 -323 258 -39 592 -4 881 91 179 60 299 119 470 232 171 114 298
227 421 372 105 124 265 386 319 525 127 321 178 701 135 1000 -49 348 -144
606 -322 872 -164 247 -307 389 -553 555 -206 138 -394 219 -650 282 -211 51
-483 69 -675 45z"/>
</g>
</svg>
